<svg xmlns="http://www.w3.org/2000/svg" width="442" height="68">
         <defs>
            <style type="text/css">
               @namespace "http://www.w3.org/2000/svg";
               .line                 {fill: none; stroke: #332900;}
               .bold-line            {stroke: #141000; shape-rendering: crispEdges; stroke-width:
               2; }
               .thin-line            {stroke: #1F1800; shape-rendering: crispEdges}
               .filled               {fill: #332900; stroke: none;}
               text.terminal         {font-family: Verdana, Sans-serif;
               font-size: 12px;
               fill: #141000;
               font-weight: bold;
               }
               text.nonterminal      {font-family: Verdana, Sans-serif;
               font-size: 12px;
               fill: #1A1400;
               }
               text.regexp           {font-family: Verdana, Sans-serif;
               font-size: 12px;
               fill: #1F1800;
               }
               rect, circle, polygon {fill: #332900; stroke: #332900;}
               rect.terminal         {fill: #FFDB4D; stroke: #332900;}
               rect.nonterminal      {fill: #FFEC9E; stroke: #332900;}
               rect.text             {fill: none; stroke: none;}    
               polygon.regexp        {fill: #FFF4C7; stroke: #332900;}
               
            </style>
         </defs>
         <polygon points="9 17 1 13 1 21"/>
         <polygon points="17 17 9 13 9 21"/>
         <rect x="31" y="3" width="30" height="32" rx="10"/>
         <rect x="29" y="1" width="30" height="32" class="terminal" rx="10"/>
         <text class="terminal" x="39" y="21">&lt;</text>
         <a xmlns:xlink="http://www.w3.org/1999/xlink" xlink:href="#selector" xlink:title="selector">
            <rect x="81" y="3" width="66" height="32"/>
            <rect x="79" y="1" width="66" height="32" class="nonterminal"/>
            <text class="nonterminal" x="89" y="21">selector</text>
         </a>
         <rect x="167" y="3" width="30" height="32" rx="10"/>
         <rect x="165" y="1" width="30" height="32" class="terminal" rx="10"/>
         <text class="terminal" x="175" y="21">&gt;</text>
         <rect x="237" y="35" width="24" height="32" rx="10"/>
         <rect x="235" y="33" width="24" height="32" class="terminal" rx="10"/>
         <text class="terminal" x="245" y="53">:</text>
         <a xmlns:xlink="http://www.w3.org/1999/xlink" xlink:href="#term-list" xlink:title="term-list">
            <rect x="281" y="35" width="70" height="32"/>
            <rect x="279" y="33" width="70" height="32" class="nonterminal"/>
            <text class="nonterminal" x="289" y="53">term-list</text>
         </a>
         <rect x="391" y="3" width="24" height="32" rx="10"/>
         <rect x="389" y="1" width="24" height="32" class="terminal" rx="10"/>
         <text class="terminal" x="399" y="21">.</text>
         <svg:path xmlns:svg="http://www.w3.org/2000/svg" class="line" d="m17 17 h2 m0 0 h10 m30 0 h10 m0 0 h10 m66 0 h10 m0 0 h10 m30 0 h10 m20 0 h10 m0 0 h124 m-154 0 h20 m134 0 h20 m-174 0 q10 0 10 10 m154 0 q0 -10 10 -10 m-164 10 v12 m154 0 v-12 m-154 12 q0 10 10 10 m134 0 q10 0 10 -10 m-144 10 h10 m24 0 h10 m0 0 h10 m70 0 h10 m20 -32 h10 m24 0 h10 m3 0 h-3"/>
         <polygon points="433 17 441 13 441 21"/>
         <polygon points="433 17 425 13 425 21"/>
      </svg>