<svg xmlns="http://www.w3.org/2000/svg" width="422" height="156">
         <defs>
            <style type="text/css">
               @namespace "http://www.w3.org/2000/svg";
               .line                 {fill: none; stroke: #332900;}
               .bold-line            {stroke: #141000; shape-rendering: crispEdges; stroke-width:
               2; }
               .thin-line            {stroke: #1F1800; shape-rendering: crispEdges}
               .filled               {fill: #332900; stroke: none;}
               text.terminal         {font-family: Verdana, Sans-serif;
               font-size: 12px;
               fill: #141000;
               font-weight: bold;
               }
               text.nonterminal      {font-family: Verdana, Sans-serif;
               font-size: 12px;
               fill: #1A1400;
               }
               text.regexp           {font-family: Verdana, Sans-serif;
               font-size: 12px;
               fill: #1F1800;
               }
               rect, circle, polygon {fill: #332900; stroke: #332900;}
               rect.terminal         {fill: #FFDB4D; stroke: #332900;}
               rect.nonterminal      {fill: #FFEC9E; stroke: #332900;}
               rect.text             {fill: none; stroke: none;}    
               polygon.regexp        {fill: #FFF4C7; stroke: #332900;}
               
            </style>
         </defs>
         <polygon points="9 17 1 13 1 21"/>
         <polygon points="17 17 9 13 9 21"/>
         <rect x="31" y="3" width="28" height="32" rx="10"/>
         <rect x="29" y="1" width="28" height="32" class="terminal" rx="10"/>
         <text class="terminal" x="39" y="21">{</text>
         <a xmlns:xlink="http://www.w3.org/1999/xlink" xlink:href="#selector" xlink:title="selector">
            <rect x="99" y="3" width="66" height="32"/>
            <rect x="97" y="1" width="66" height="32" class="nonterminal"/>
            <text class="nonterminal" x="107" y="21">selector</text>
         </a>
         <rect x="185" y="3" width="24" height="32" rx="10"/>
         <rect x="183" y="1" width="24" height="32" class="terminal" rx="10"/>
         <text class="terminal" x="193" y="21">!</text>
         <a xmlns:xlink="http://www.w3.org/1999/xlink" xlink:href="#term-list" xlink:title="term-list">
            <rect x="99" y="47" width="70" height="32"/>
            <rect x="97" y="45" width="70" height="32" class="nonterminal"/>
            <text class="nonterminal" x="107" y="65">term-list</text>
         </a>
         <a xmlns:xlink="http://www.w3.org/1999/xlink" xlink:href="#term-list" xlink:title="term-list">
            <rect x="119" y="123" width="70" height="32"/>
            <rect x="117" y="121" width="70" height="32" class="nonterminal"/>
            <text class="nonterminal" x="127" y="141">term-list</text>
         </a>
         <rect x="229" y="91" width="30" height="32" rx="10"/>
         <rect x="227" y="89" width="30" height="32" class="terminal" rx="10"/>
         <text class="terminal" x="237" y="109">=</text>
         <a xmlns:xlink="http://www.w3.org/1999/xlink" xlink:href="#term" xlink:title="term">
            <rect x="279" y="91" width="48" height="32"/>
            <rect x="277" y="89" width="48" height="32" class="nonterminal"/>
            <text class="nonterminal" x="287" y="109">term</text>
         </a>
         <rect x="367" y="3" width="28" height="32" rx="10"/>
         <rect x="365" y="1" width="28" height="32" class="terminal" rx="10"/>
         <text class="terminal" x="375" y="21">}</text>
         <svg:path xmlns:svg="http://www.w3.org/2000/svg" class="line" d="m17 17 h2 m0 0 h10 m28 0 h10 m20 0 h10 m66 0 h10 m0 0 h10 m24 0 h10 m0 0 h118 m-268 0 h20 m248 0 h20 m-288 0 q10 0 10 10 m268 0 q0 -10 10 -10 m-278 10 v24 m268 0 v-24 m-268 24 q0 10 10 10 m248 0 q10 0 10 -10 m-258 10 h10 m70 0 h10 m0 0 h158 m-258 -10 v20 m268 0 v-20 m-268 20 v24 m268 0 v-24 m-268 24 q0 10 10 10 m248 0 q10 0 10 -10 m-238 10 h10 m0 0 h80 m-110 0 h20 m90 0 h20 m-130 0 q10 0 10 10 m110 0 q0 -10 10 -10 m-120 10 v12 m110 0 v-12 m-110 12 q0 10 10 10 m90 0 q10 0 10 -10 m-100 10 h10 m70 0 h10 m20 -32 h10 m30 0 h10 m0 0 h10 m48 0 h10 m20 -88 h10 m28 0 h10 m3 0 h-3"/>
         <polygon points="413 17 421 13 421 21"/>
         <polygon points="413 17 405 13 405 21"/>
      </svg>
