<svg xmlns="http://www.w3.org/2000/svg" width="290" height="112">
    <defs>
      <style type="text/css">
          @namespace "http://www.w3.org/2000/svg";
          .line                 {fill: none; stroke: #332900;}
          .bold-line            {stroke: #141000; shape-rendering: crispEdges; stroke-width:
          2; }
          .thin-line            {stroke: #1F1800; shape-rendering: crispEdges}
          .filled               {fill: #332900; stroke: none;}
          text.terminal         {font-family: Verdana, Sans-serif;
          font-size: 12px;
          fill: #141000;
          font-weight: bold;
          }
          text.nonterminal      {font-family: Verdana, Sans-serif;
          font-size: 12px;
          fill: #1A1400;
          }
          text.regexp           {font-family: Verdana, Sans-serif;
          font-size: 12px;
          fill: #1F1800;
          }
          rect, circle, polygon {fill: #332900; stroke: #332900;}
          rect.terminal         {fill: #FFDB4D; stroke: #332900;}
          rect.nonterminal      {fill: #FFEC9E; stroke: #332900;}
          rect.text             {fill: none; stroke: none;}
          polygon.regexp        {fill: #FFF4C7; stroke: #332900;}

      </style>
    </defs>
    <polygon points="9 17 1 13 1 21"/>
    <polygon points="17 17 9 13 9 21"/>
    <a xmlns:xlink="http://www.w3.org/1999/xlink" xlink:href="#property" xlink:title="property">
      <rect x="51" y="3" width="70" height="32"/>
      <rect x="49" y="1" width="70" height="32" class="nonterminal"/>
      <text class="nonterminal" x="59" y="21">property</text>
    </a>
    <a xmlns:xlink="http://www.w3.org/1999/xlink" xlink:href="#method" xlink:title="method">
      <rect x="51" y="47" width="66" height="32"/>
      <rect x="49" y="45" width="66" height="32" class="nonterminal"/>
      <text class="nonterminal" x="59" y="65">method</text>
    </a>
    <a xmlns:xlink="http://www.w3.org/1999/xlink" xlink:href="#outputs" xlink:title="outputs">
      <rect x="157" y="79" width="66" height="32"/>
      <rect x="155" y="77" width="66" height="32" class="nonterminal"/>
      <text class="nonterminal" x="165" y="97">outputs</text>
    </a>
    <svg:path xmlns:svg="http://www.w3.org/2000/svg" class="line" d="m17 17 h2 m20 0 h10 m70 0 h10 m0 0 h122 m-232 0 h20 m212 0 h20 m-252 0 q10 0 10 10 m232 0 q0 -10 10 -10 m-242 10 v24 m232 0 v-24 m-232 24 q0 10 10 10 m212 0 q10 0 10 -10 m-222 10 h10 m66 0 h10 m20 0 h10 m0 0 h76 m-106 0 h20 m86 0 h20 m-126 0 q10 0 10 10 m106 0 q0 -10 10 -10 m-116 10 v12 m106 0 v-12 m-106 12 q0 10 10 10 m86 0 q10 0 10 -10 m-96 10 h10 m66 0 h10 m43 -76 h-3"/>
    <polygon points="281 17 289 13 289 21"/>
    <polygon points="281 17 273 13 273 21"/>
</svg>