<svg xmlns="http://www.w3.org/2000/svg" width="548" height="80">
         <defs>
            <style type="text/css">
               @namespace "http://www.w3.org/2000/svg";
               .line                 {fill: none; stroke: #332900;}
               .bold-line            {stroke: #141000; shape-rendering: crispEdges; stroke-width:
               2; }
               .thin-line            {stroke: #1F1800; shape-rendering: crispEdges}
               .filled               {fill: #332900; stroke: none;}
               text.terminal         {font-family: Verdana, Sans-serif;
               font-size: 12px;
               fill: #141000;
               font-weight: bold;
               }
               text.nonterminal      {font-family: Verdana, Sans-serif;
               font-size: 12px;
               fill: #1A1400;
               }
               text.regexp           {font-family: Verdana, Sans-serif;
               font-size: 12px;
               fill: #1F1800;
               }
               rect, circle, polygon {fill: #332900; stroke: #332900;}
               rect.terminal         {fill: #FFDB4D; stroke: #332900;}
               rect.nonterminal      {fill: #FFEC9E; stroke: #332900;}
               rect.text             {fill: none; stroke: none;}    
               polygon.regexp        {fill: #FFF4C7; stroke: #332900;}
               
            </style>
         </defs>
         <polygon points="9 17 1 13 1 21"/>
         <polygon points="17 17 9 13 9 21"/>
         <a xmlns:xlink="http://www.w3.org/1999/xlink" xlink:href="#selector" xlink:title="selector">
            <rect x="31" y="3" width="66" height="32"/>
            <rect x="29" y="1" width="66" height="32" class="nonterminal"/>
            <text class="nonterminal" x="39" y="21">selector</text>
         </a>
         <rect x="137" y="35" width="24" height="32" rx="10"/>
         <rect x="135" y="33" width="24" height="32" class="terminal" rx="10"/>
         <text class="terminal" x="145" y="53">:</text>
         <a xmlns:xlink="http://www.w3.org/1999/xlink" xlink:href="#term-list" xlink:title="term-list">
            <rect x="181" y="35" width="70" height="32"/>
            <rect x="179" y="33" width="70" height="32" class="nonterminal"/>
            <text class="nonterminal" x="189" y="53">term-list</text>
         </a>
         <rect x="291" y="3" width="30" height="32" rx="10"/>
         <rect x="289" y="1" width="30" height="32" class="terminal" rx="10"/>
         <text class="terminal" x="299" y="21">=</text>
         <a xmlns:xlink="http://www.w3.org/1999/xlink" xlink:href="#term" xlink:title="term">
            <rect x="361" y="3" width="48" height="32"/>
            <rect x="359" y="1" width="48" height="32" class="nonterminal"/>
            <text class="nonterminal" x="369" y="21">term</text>
         </a>
         <rect x="361" y="47" width="26" height="32" rx="10"/>
         <rect x="359" y="45" width="26" height="32" class="terminal" rx="10"/>
         <text class="terminal" x="369" y="65">[</text>
         <a xmlns:xlink="http://www.w3.org/1999/xlink" xlink:href="#term" xlink:title="term">
            <rect x="407" y="47" width="48" height="32"/>
            <rect x="405" y="45" width="48" height="32" class="nonterminal"/>
            <text class="nonterminal" x="415" y="65">term</text>
         </a>
         <rect x="475" y="47" width="26" height="32" rx="10"/>
         <rect x="473" y="45" width="26" height="32" class="terminal" rx="10"/>
         <text class="terminal" x="483" y="65">]</text>
         <svg:path xmlns:svg="http://www.w3.org/2000/svg" class="line" d="m17 17 h2 m0 0 h10 m66 0 h10 m20 0 h10 m0 0 h124 m-154 0 h20 m134 0 h20 m-174 0 q10 0 10 10 m154 0 q0 -10 10 -10 m-164 10 v12 m154 0 v-12 m-154 12 q0 10 10 10 m134 0 q10 0 10 -10 m-144 10 h10 m24 0 h10 m0 0 h10 m70 0 h10 m20 -32 h10 m30 0 h10 m20 0 h10 m48 0 h10 m0 0 h92 m-180 0 h20 m160 0 h20 m-200 0 q10 0 10 10 m180 0 q0 -10 10 -10 m-190 10 v24 m180 0 v-24 m-180 24 q0 10 10 10 m160 0 q10 0 10 -10 m-170 10 h10 m26 0 h10 m0 0 h10 m48 0 h10 m0 0 h10 m26 0 h10 m23 -44 h-3"/>
         <polygon points="539 17 547 13 547 21"/>
         <polygon points="539 17 531 13 531 21"/>
      </svg>