<svg xmlns="http://www.w3.org/2000/svg" width="456" height="168">
         <defs>
            <style type="text/css">
               @namespace "http://www.w3.org/2000/svg";
               .line                 {fill: none; stroke: #332900;}
               .bold-line            {stroke: #141000; shape-rendering: crispEdges; stroke-width:
               2; }
               .thin-line            {stroke: #1F1800; shape-rendering: crispEdges}
               .filled               {fill: #332900; stroke: none;}
               text.terminal         {font-family: Verdana, Sans-serif;
               font-size: 12px;
               fill: #141000;
               font-weight: bold;
               }
               text.nonterminal      {font-family: Verdana, Sans-serif;
               font-size: 12px;
               fill: #1A1400;
               }
               text.regexp           {font-family: Verdana, Sans-serif;
               font-size: 12px;
               fill: #1F1800;
               }
               rect, circle, polygon {fill: #332900; stroke: #332900;}
               rect.terminal         {fill: #FFDB4D; stroke: #332900;}
               rect.nonterminal      {fill: #FFEC9E; stroke: #332900;}
               rect.text             {fill: none; stroke: none;}    
               polygon.regexp        {fill: #FFF4C7; stroke: #332900;}
               
            </style>
         </defs>
         <polygon points="9 17 1 13 1 21"/>
         <polygon points="17 17 9 13 9 21"/>
         <a xmlns:xlink="http://www.w3.org/1999/xlink" xlink:href="#selector" xlink:title="selector">
            <rect x="31" y="3" width="66" height="32"/>
            <rect x="29" y="1" width="66" height="32" class="nonterminal"/>
            <text class="nonterminal" x="39" y="21">selector</text>
         </a>
         <rect x="137" y="3" width="24" height="32" rx="10"/>
         <rect x="135" y="1" width="24" height="32" class="terminal" rx="10"/>
         <text class="terminal" x="145" y="21">.</text>
         <rect x="137" y="47" width="26" height="32" rx="10"/>
         <rect x="135" y="45" width="26" height="32" class="terminal" rx="10"/>
         <text class="terminal" x="145" y="65">?</text>
         <rect x="137" y="91" width="24" height="32" rx="10"/>
         <rect x="135" y="89" width="24" height="32" class="terminal" rx="10"/>
         <text class="terminal" x="145" y="109">:</text>
         <a xmlns:xlink="http://www.w3.org/1999/xlink" xlink:href="#term-list" xlink:title="term-list">
            <rect x="181" y="91" width="70" height="32"/>
            <rect x="179" y="89" width="70" height="32" class="nonterminal"/>
            <text class="nonterminal" x="189" y="109">term-list</text>
         </a>
         <rect x="291" y="91" width="24" height="32" rx="10"/>
         <rect x="289" y="89" width="24" height="32" class="terminal" rx="10"/>
         <text class="terminal" x="299" y="109">.</text>
         <rect x="291" y="135" width="30" height="32" rx="10"/>
         <rect x="289" y="133" width="30" height="32" class="terminal" rx="10"/>
         <text class="terminal" x="299" y="153">=</text>
         <a xmlns:xlink="http://www.w3.org/1999/xlink" xlink:href="#term" xlink:title="term">
            <rect x="341" y="135" width="48" height="32"/>
            <rect x="339" y="133" width="48" height="32" class="nonterminal"/>
            <text class="nonterminal" x="349" y="153">term</text>
         </a>
         <svg:path xmlns:svg="http://www.w3.org/2000/svg" class="line" d="m17 17 h2 m0 0 h10 m66 0 h10 m20 0 h10 m24 0 h10 m0 0 h248 m-312 0 h20 m292 0 h20 m-332 0 q10 0 10 10 m312 0 q0 -10 10 -10 m-322 10 v24 m312 0 v-24 m-312 24 q0 10 10 10 m292 0 q10 0 10 -10 m-302 10 h10 m26 0 h10 m0 0 h246 m-302 -10 v20 m312 0 v-20 m-312 20 v24 m312 0 v-24 m-312 24 q0 10 10 10 m292 0 q10 0 10 -10 m-302 10 h10 m24 0 h10 m0 0 h10 m70 0 h10 m20 0 h10 m24 0 h10 m0 0 h74 m-138 0 h20 m118 0 h20 m-158 0 q10 0 10 10 m138 0 q0 -10 10 -10 m-148 10 v24 m138 0 v-24 m-138 24 q0 10 10 10 m118 0 q10 0 10 -10 m-128 10 h10 m30 0 h10 m0 0 h10 m48 0 h10 m43 -132 h-3"/>
         <polygon points="447 17 455 13 455 21"/>
         <polygon points="447 17 439 13 439 21"/>
      </svg>