<svg xmlns="http://www.w3.org/2000/svg" width="364" height="68">
         <defs>
            <style type="text/css">
               @namespace "http://www.w3.org/2000/svg";
               .line                 {fill: none; stroke: #332900;}
               .bold-line            {stroke: #141000; shape-rendering: crispEdges; stroke-width:
               2; }
               .thin-line            {stroke: #1F1800; shape-rendering: crispEdges}
               .filled               {fill: #332900; stroke: none;}
               text.terminal         {font-family: Verdana, Sans-serif;
               font-size: 12px;
               fill: #141000;
               font-weight: bold;
               }
               text.nonterminal      {font-family: Verdana, Sans-serif;
               font-size: 12px;
               fill: #1A1400;
               }
               text.regexp           {font-family: Verdana, Sans-serif;
               font-size: 12px;
               fill: #1F1800;
               }
               rect, circle, polygon {fill: #332900; stroke: #332900;}
               rect.terminal         {fill: #FFDB4D; stroke: #332900;}
               rect.nonterminal      {fill: #FFEC9E; stroke: #332900;}
               rect.text             {fill: none; stroke: none;}    
               polygon.regexp        {fill: #FFF4C7; stroke: #332900;}
               
            </style>
         </defs>
         <polygon points="9 49 1 45 1 53"/>
         <polygon points="17 49 9 45 9 53"/>
         <rect x="31" y="35" width="26" height="32" rx="10"/>
         <rect x="29" y="33" width="26" height="32" class="terminal" rx="10"/>
         <text class="terminal" x="39" y="53">-</text>
         <a xmlns:xlink="http://www.w3.org/1999/xlink" xlink:href="#word" xlink:title="word">
            <rect x="117" y="35" width="50" height="32"/>
            <rect x="115" y="33" width="50" height="32" class="nonterminal"/>
            <text class="nonterminal" x="125" y="53">word</text>
         </a>
         <rect x="207" y="35" width="24" height="32" rx="10"/>
         <rect x="205" y="33" width="24" height="32" class="terminal" rx="10"/>
         <text class="terminal" x="215" y="53">:</text>
         <a xmlns:xlink="http://www.w3.org/1999/xlink" xlink:href="#selector" xlink:title="selector">
            <rect x="251" y="35" width="66" height="32"/>
            <rect x="249" y="33" width="66" height="32" class="nonterminal"/>
            <text class="nonterminal" x="259" y="53">selector</text>
         </a>
         <svg:path xmlns:svg="http://www.w3.org/2000/svg" class="line" d="m17 49 h2 m0 0 h10 m26 0 h10 m40 0 h10 m50 0 h10 m-90 0 l20 0 m-1 0 q-9 0 -9 -10 l0 -12 q0 -10 10 -10 m70 32 l20 0 m-20 0 q10 0 10 -10 l0 -12 q0 -10 -10 -10 m-70 0 h10 m0 0 h60 m20 32 h10 m24 0 h10 m0 0 h10 m66 0 h10 m-260 0 l20 0 m-1 0 q-9 0 -9 -10 l0 -28 q0 -10 10 -10 m240 48 l20 0 m-20 0 q10 0 10 -10 l0 -28 q0 -10 -10 -10 m-240 0 h10 m0 0 h230 m23 48 h-3"/>
         <polygon points="355 49 363 45 363 53"/>
         <polygon points="355 49 347 45 347 53"/>
      </svg>